<?xml version="1.0" standalone="no"?>
<!DOCTYPE svg PUBLIC "-//W3C//DTD SVG 20010904//EN"
 "http://www.w3.org/TR/2001/REC-SVG-20010904/DTD/svg10.dtd">
<svg version="1.0" xmlns="http://www.w3.org/2000/svg"
 width="512.000000pt" height="512.000000pt" viewBox="0 0 512.000000 512.000000"
 preserveAspectRatio="xMidYMid meet">

<g transform="translate(0.000000,512.000000) scale(0.100000,-0.100000)"
fill="#000000" stroke="none">
<path d="M2295 5069 c-250 -19 -548 -79 -765 -154 -130 -45 -340 -147 -440
-213 -196 -130 -339 -299 -392 -464 -21 -66 -21 -69 -4 -125 135 -438 773
-774 1599 -842 996 -83 1969 300 2132 838 17 58 17 61 -3 127 -36 120 -124
244 -252 358 -381 339 -1136 531 -1875 475z"/>
<path d="M671 3533 c-1 -296 2 -453 9 -453 6 0 10 -7 10 -15 0 -32 44 -128 91
-201 230 -352 815 -609 1514 -665 184 -15 521 -7 695 16 683 90 1204 360 1390
719 21 41 42 91 46 110 3 20 10 36 15 36 5 0 9 195 8 453 -1 407 -2 446 -15
395 -95 -393 -624 -727 -1334 -842 -273 -44 -663 -53 -925 -22 -795 96 -1387
439 -1489 863 -13 53 -14 15 -15 -394z"/>
<path d="M671 2463 c-1 -258 3 -453 8 -453 5 0 12 -16 15 -35 4 -19 25 -69 46
-112 125 -247 417 -456 829 -593 282 -93 545 -138 874 -147 l217 -6 0 84 c0
46 6 107 14 135 44 166 184 306 351 350 39 11 180 14 647 14 l598 0 41 52 c44
56 89 139 109 203 7 22 16 44 21 49 5 6 9 213 8 460 -1 416 -2 446 -15 391 -8
-33 -30 -91 -49 -128 -324 -637 -1645 -943 -2728 -631 -519 149 -894 443 -971
760 -13 54 -14 19 -15 -393z"/>
<path d="M673 1410 l2 -435 26 -67 c89 -228 281 -410 594 -563 717 -350 1813
-350 2530 0 166 81 269 150 370 247 l80 77 -600 1 c-475 0 -611 3 -651 14 -88
23 -171 74 -237 146 l-62 67 -225 6 c-251 7 -404 23 -623 67 -282 57 -595 180
-791 312 -99 66 -234 192 -292 274 -51 71 -89 153 -109 233 -12 50 -14 9 -12
-379z"/>
<path d="M4431 1783 c-7 -32 -15 -64 -18 -70 -3 -8 3 -13 16 -13 19 0 21 6 21
70 0 39 -1 70 -3 70 -2 0 -9 -26 -16 -57z"/>
<path d="M3057 1486 c-92 -34 -164 -109 -188 -201 -6 -22 -9 -78 -7 -125 6
-128 53 -205 162 -263 l41 -22 895 0 895 0 53 30 c59 32 91 66 125 129 19 35
22 57 22 151 0 94 -3 116 -22 151 -34 63 -66 97 -125 129 l-53 30 -880 2
c-723 2 -887 0 -918 -11z"/>
</g>
</svg>
